<?xml version="1.0" encoding="utf-8"?>
<!-- Generator: Adobe Illustrator 19.2.0, SVG Export Plug-In . SVG Version: 6.00 Build 0)  -->
<svg version="1.1" id="Layer_1" xmlns="http://www.w3.org/2000/svg" xmlns:xlink="http://www.w3.org/1999/xlink" x="0px" y="0px"
	 viewBox="0 0 94.5 94.5" style="enable-background:new 0 0 94.5 94.5;" xml:space="preserve">
<style type="text/css">
	.st0{fill:#FFFFFF;}
</style>
<g>
	<path class="st0" d="M57.9,45.6c0,0-0.5-0.5-1.3-0.5c-0.4,0-0.9,0.1-1.3,0.4c-0.1,0-0.1,0.1-0.1,0.2c0,0,0.3,2.3,0.1,3.2
		c-0.2,0.7-0.8,1.6-1.9,1.6c-0.2,0-0.5,0-0.7-0.1l0,0l0.8-0.6c0.1,0,0.1-0.1,0.1-0.2c0-0.1,0-0.1-0.1-0.2l-1.7-1.1
		c0.5-0.4,0.9-0.7,0.9-0.7s0.1-0.1,0.1-0.2c0-0.1,0-0.1-0.1-0.2l-0.3-0.3c0,0-0.1-0.1-0.2-0.1h-0.1c0,0-0.5,0.3-1.1,0.8l-0.7-0.5
		l2.6-1.8L53,46c0,0.1,0.1,0.1,0.2,0.1l0,0c0.1,0,0.2,0,0.2-0.1l1.2-2.3c0-0.1,0-0.2,0-0.2c0-0.1-0.1-0.1-0.2-0.1l0,0l-2.6,0.4
		c-0.1,0-0.2,0.1-0.2,0.2c0,0.1,0,0.2,0.1,0.2l0.4,0.4l-3,2l-3-2l0.4-0.4c0.1-0.1,0.1-0.2,0.1-0.2c0-0.1-0.1-0.1-0.2-0.2l-2.6-0.4
		l0,0c-0.1,0-0.1,0-0.2,0.1c0,0.1-0.1,0.2,0,0.2L45,46c0,0.1,0.1,0.1,0.2,0.1l0,0c0.1,0,0.2-0.1,0.2-0.1l0.2-0.5l2.6,1.8l-0.7,0.5
		c-0.7-0.5-1.1-0.8-1.1-0.8h-0.1c-0.1,0-0.1,0-0.2,0.1l-0.3,0.3c0,0-0.1,0.1-0.1,0.2c0,0.1,0,0.1,0.1,0.2c0,0,0.4,0.3,0.9,0.7
		L45,49.4c-0.1,0-0.1,0.1-0.1,0.2c0,0.1,0,0.1,0.1,0.2l0.8,0.6l0,0c-0.3,0.1-0.5,0.1-0.7,0.1c-1.1,0-1.7-0.8-1.9-1.6
		c-0.2-1,0.1-3.2,0.1-3.2c0-0.1,0-0.2-0.1-0.2c-0.5-0.3-0.9-0.4-1.3-0.4c-0.8,0-1.3,0.5-1.3,0.5l-0.1,0.1c0,0.1-0.3,3.4,1.2,5
		c0.6,0.6,1.3,0.9,2.2,0.9c0.2,0,0.3,0,0.5,0c0.9-0.1,1.7-0.3,2.5-0.6l1.4,0.9L45.1,54C45,54,45,54.1,45,54.2c0,0.1,0,0.1,0.1,0.2
		l3.1,2.1l-2.6,1.8l-0.2-0.5c0-0.1-0.1-0.1-0.2-0.1l0,0c-0.1,0-0.2,0-0.2,0.1l-1.2,2.3c0,0.1,0,0.2,0,0.2c0,0.1,0.1,0.1,0.2,0.1l0,0
		l2.6-0.4c0.1,0,0.2-0.1,0.2-0.2c0-0.1,0-0.2-0.1-0.2l-0.4-0.4l3-2.1l3,2.1l-0.4,0.4c-0.1,0.1-0.1,0.2-0.1,0.2
		c0,0.1,0.1,0.1,0.2,0.2l2.6,0.4l0,0c0.1,0,0.1,0,0.2-0.1c0-0.1,0.1-0.2,0-0.2l-1.2-2.3c0-0.1-0.1-0.1-0.2-0.1l0,0
		c-0.1,0-0.2,0.1-0.2,0.1L53,58.3l-2.6-1.8l3.1-2.1c0.1,0,0.1-0.1,0.1-0.2c0-0.1,0-0.1-0.1-0.2l-3.1-2.1l1.4-0.9
		c0.8,0.3,1.6,0.5,2.5,0.6c0.2,0,0.3,0,0.5,0c0.9,0,1.6-0.3,2.2-0.9c1.5-1.6,1.2-4.9,1.2-5C57.9,45.7,57.9,45.6,57.9,45.6z M49.2,48
		l0.7,0.4c-0.2,0.1-0.4,0.3-0.7,0.4c-0.2-0.1-0.4-0.3-0.7-0.4L49.2,48z M46.8,49.6l0.9-0.6c0.2,0.1,0.4,0.2,0.6,0.4
		c-0.4,0.2-0.7,0.4-1.1,0.5L46.8,49.6z M51.5,54.2l-2.3,1.6l-2.3-1.6l2.3-1.6L51.5,54.2z M49.2,51.2l-1.1-0.8
		c0.4-0.2,0.8-0.4,1.1-0.6c0.4,0.2,0.7,0.4,1.1,0.6L49.2,51.2z M51.2,49.9c-0.4-0.2-0.7-0.3-1.1-0.5c0.2-0.1,0.4-0.2,0.6-0.4
		l0.9,0.6L51.2,49.9z"/>
	<path class="st0" d="M58.7,47.5c0.1-0.2,0.1-0.5,0.1-0.5h-0.1V47.5z"/>
	<path class="st0" d="M88.2,39.5c-1-0.6-2.6-0.8-4.2-0.6c2.5-0.9,4.3-2.8,4.4-4.4c-1.3-0.4-2.7-0.2-3.9,0.1c1.2-0.9,3.2-2.6,3-5.1
		c-1.2-0.3-3.4,0.5-4.3,0.9c2.9-1.6,4-5.5,2.4-7.7c-0.9,0.5-5.1,4.8-5.8,5.3c2.2-2.5,3.2-4.2,3.7-5.9c0.7-1.8,0.7-5-1.5-6
		c-1.1,2.4-4.8,8.6-6.8,11.2c-0.2-0.2-0.4-0.5-0.7-0.5c-0.5,1.6-2,3.7-3.3,4.7c-0.1-0.1-0.2-0.5-0.4-0.9c-1.4,2.1-5.1,5-6.3,6.8
		c-0.9,1.3-0.9,2.5,0.4,3.7c0.5,0.5,1.5,1.4,0.7,2.7c-1.2,1.7-3.5,1.9-4.8,0.9c0-0.3,0-0.6,0-0.9c1.5-0.6,1.8-2.6,0.7-3.9
		c-0.2,0.5-0.6,0.8-1.1,1c-0.1-0.5-0.2-0.8-0.3-0.8L60,40h-0.1c0,0-0.5,0-1.2-0.1c0.8-0.3,1.4-1,1.2-2.1c-1.3,1.1-2.6,0-2.8-0.2
		c-0.8-0.9-1-2-0.7-3.6c0.3-1.4,1.7-3.7,2.7-4.4c0.1,0.1,0.4,0.4,0.8,0.4c0.3-0.1,0.7-0.3,1.1-0.4c1-0.3,1.9-0.1,2.5,0.3
		c1.1,0.7,1,1.4,1,2c1.7-0.9,1.1-2.5-1.1-3.1c1.5,0,2.7,1.4,3,1.5c0.8,0.6,2,0.5,2.7,0.1c1.3-0.6,1.6-2.2,1.2-2.5
		C70.2,28.5,69.7,29,69,29c-1.1,0.1-2.2-0.4-3.1-0.7c-0.7-0.3-1.9-0.5-2.7-0.5c1.5-0.8,3.8-0.7,4.7,0.5c0.5-0.4,0.8-0.8,0.9-1.6
		c0.4-2.2-1.3-3.4-3.2-3.4c0-0.5-0.3-0.8-0.8-0.6c0-0.2-0.1-0.4-0.2-0.5h0.1c1.9-0.1,3.7-0.7,4.6-1.7c1.7-1.8-1-4.1,0-5.9
		c0.9,0.4,1.6,0.9,2.9,1.1c0.1,0.3,0.2,0.8,0.3,1.1c0.4,2-1.6,2.3-1.1,4.5c0.2,1,0.9,1.3,1.2,2.4c0,0,0.1,0.8-0.6,1.5
		c1.6,0,2.5-1.3,2-2.6c-0.2-0.5-0.8-1-0.8-1.6c0.8,1.1,1.6,1.1,2.9,0.6c0.6-0.2,0.6,0.6,0.3,1.3c0.9-0.5,1.1-1.4,1.1-1.8
		c0-0.9-0.7-1.3-1.4-1.1c-0.4,0-1.1,0.6-1.2-0.2c-0.2-1.3,1.9-1.2,1.5-3.3c-0.2-1-1.4-1.6-3.2-1.8c-0.2-0.2-0.6-0.6-0.9-1
		c-1-1.6-2-2.1-2.6-1.7c-0.7,0.4-1.1,0.7-1.7,1c-0.5,0.2-1,0.4-1.3,0.7c-0.8,1,0,2.5,0.4,3.4c0.3,0.5,0.9,1.8,0.6,2.7
		c-0.3,1.1-2.1,1.8-3.2,2c-0.1,0-0.1,0-0.2,0v-0.4c0.3-0.6,0.6-1.2,0.8-1.8c0.7-2-0.4-2.8-2-3.2c-0.2-0.1-0.4-0.2-0.7-0.1l0,0v0.3
		l-0.2-0.1v-0.4h-0.1c0.2-0.1,0.3-0.4,0.3-0.6c0-0.2-0.1-0.4-0.2-0.6h0.2l-0.1-0.1c0-0.1-0.1-0.2-0.3-0.3c0,0-0.1-0.1-0.1-0.2
		c0,0,0.1,0.1,0.2,0.1c0.1,0.1,0.2,0.2,0.3,0.3l0.1,0.1V13l-0.1,0.1c0,0-0.2,0.1-0.3,0.2c-0.1,0.1-0.1,0.1-0.2,0.1
		c0,0,0-0.1,0.1-0.2c0.1-0.1,0.2-0.2,0.3-0.3l0.1-0.1h-1.8l0.1,0.1c0.1,0.1,0.2,0.2,0.3,0.3c0,0.1,0.1,0.1,0.1,0.2
		c0,0-0.1,0-0.2-0.1c-0.2-0.1-0.2-0.2-0.3-0.2L60.5,13v1.8l0.1-0.1c0.1-0.1,0.2-0.2,0.3-0.3c0,0,0.1-0.1,0.2-0.1
		c0,0-0.1,0.1-0.1,0.2c-0.1,0.1-0.2,0.2-0.3,0.3l0,0.2H61c-0.2,0.1-0.2,0.3-0.2,0.6c0,0.2,0.1,0.4,0.2,0.6l0,0v0.4l-0.2,0.1v-0.3
		l0,0c-0.3-0.1-0.5,0-0.7,0.1c-1.7,0.4-2.8,1.2-2,3.2c0.2,0.6,0.5,1.3,0.8,1.8v0.3c-1.7-0.5-4.6-2.4-5.5-3.5
		c-0.1-0.1-0.2-0.2-0.2-0.3l0,0v-1.2c0.6-1,1.1-2.2,1.5-3.3c1.1-2.9-0.5-4-3-4.5c-0.2-0.2-0.6-0.3-1-0.1l-0.1,0.4h-0.5V8.7
		c-0.1,0-0.2,0-0.3,0c0.4-0.2,0.6-0.6,0.6-1.1c0-0.3-0.2-0.7-0.4-0.9h0.4c-0.2-0.2-0.7-0.7-0.7-1c0.3,0.1,0.8,0.5,1,0.7V4.2
		c-0.2,0.2-0.7,0.6-1,0.7c0.1-0.3,0.5-0.7,0.7-0.9h-2.3c0.2,0.2,0.6,0.7,0.7,0.9c-0.3,0-0.7-0.5-1-0.7v2.3c0.2-0.2,0.7-0.7,1-0.7
		c0,0.3-0.5,0.8-0.7,1h0.4c-0.3,0.2-0.4,0.6-0.4,0.9c0,0.4,0.2,0.9,0.6,1.1c-0.1,0-0.2,0-0.3,0v0.6h-0.5V9c-0.4-0.1-0.7,0-1,0.1
		c-2.4,0.5-4,1.7-2.9,4.5c0.4,1.1,0.9,2.3,1.5,3.3V18c0,0-0.1,0.1-0.2,0.2c-0.8,1.1-3.8,2.9-5.5,3.5v-0.3c0.3-0.6,0.6-1.2,0.8-1.8
		c0.7-2-0.4-2.8-2-3.2c-0.2-0.1-0.4-0.2-0.7-0.1l0,0v0.3l-0.2-0.1v-0.4l0,0c0.1-0.1,0.2-0.4,0.2-0.6c0-0.2,0-0.4-0.2-0.6H38
		l-0.1-0.1c-0.1-0.1-0.2-0.2-0.3-0.3c0,0-0.1-0.1-0.2-0.2l0.2,0.1c0.1,0.1,0.2,0.2,0.3,0.3l0.1,0.1V13v0.2c-0.1,0-0.2,0.1-0.3,0.2
		c0,0.1-0.2,0.1-0.2,0.1s0.1-0.1,0.2-0.2c0.1-0.1,0.2-0.2,0.3-0.3l0.1-0.1h-1.8l0.1,0.1c0,0.1,0.2,0.2,0.2,0.3
		c0.1,0.1,0.1,0.1,0.1,0.2c0,0-0.1,0-0.2-0.1c-0.1-0.1-0.3-0.2-0.3-0.2l-0.1-0.1v1.8l0.1-0.1c0-0.1,0.2-0.2,0.3-0.3
		c0.1,0,0.1-0.1,0.2-0.1c0,0,0,0.1-0.1,0.2c-0.1,0.1-0.2,0.2-0.2,0.3L36.2,15h0.2c-0.1,0.1-0.2,0.3-0.2,0.6c0,0.2,0.1,0.4,0.3,0.6
		h-0.1v0.4l-0.3,0.1v-0.3l0,0c-0.3-0.1-0.5,0-0.7,0.1c-1.7,0.4-2.8,1.2-2,3.2c0.2,0.6,0.5,1.3,0.8,1.8v0.4c-0.1,0-0.1,0-0.2,0
		c-1.1-0.2-2.9-0.9-3.3-2c-0.3-0.9,0.4-2.2,0.6-2.7c0.4-0.9,1.1-2.4,0.4-3.4c-0.3-0.4-0.8-0.5-1.3-0.7c-0.6-0.3-0.9-0.6-1.7-1
		c-0.6-0.3-1.6,0.1-2.6,1.7c-0.2,0.4-0.7,0.8-0.9,1c-1.8,0.2-2.9,0.8-3.2,1.8c-0.4,2.1,1.6,2,1.5,3.3c0,0.7-0.8,0.2-1.2,0.2
		c-0.7-0.2-1.4,0.2-1.4,1.1c0,0.4,0.2,1.2,1.1,1.8c-0.4-0.6-0.3-1.5,0.3-1.3c1.3,0.4,2,0.4,2.8-0.6c0,0.6-0.5,1.1-0.8,1.6
		c-0.5,1.3,0.3,2.6,2,2.6c-0.7-0.7-0.6-1.5-0.6-1.5c0.2-1.1,0.9-1.5,1.2-2.4c0.5-2.1-1.5-2.5-1.1-4.5c0-0.3,0.1-0.8,0.3-1.1
		c1.3-0.2,2-0.7,2.9-1.1c0.9,1.8-1.7,4.1,0,5.9c1,1,2.8,1.6,4.6,1.7h0.1c-0.1,0.1-0.2,0.3-0.2,0.5c-0.5-0.2-0.9,0.1-0.8,0.6
		c-1.9,0-3.6,1.1-3.2,3.4c0.1,0.8,0.4,1.2,1,1.6c0.8-1.3,3.1-1.4,4.7-0.5c-0.8,0-2,0.2-2.8,0.5c-0.9,0.4-2,0.9-3.1,0.7
		C28.5,29,28.1,28.5,28,28c-0.4,0.3-0.1,1.9,1.3,2.5c0.7,0.3,1.9,0.5,2.7-0.1c0.3-0.2,1.5-1.5,3.1-1.5c-2.2,0.6-2.8,2.2-1.1,3.1
		c-0.1-0.5-0.2-1.3,0.9-2c0.6-0.4,1.6-0.6,2.5-0.3c0.3,0.1,0.8,0.4,1.1,0.4c0.5,0,0.7-0.2,0.8-0.4c1,0.7,2.4,3,2.7,4.4
		c0.3,1.6,0.1,2.7-0.7,3.6C41,38,39.7,39,38.5,37.9c-0.1,1,0.4,1.8,1.2,2.1c-0.7,0.1-1.2,0.1-1.3,0.1h-0.1l-0.1,0.1
		c0,0-0.1,0.3-0.3,0.8c-0.5-0.2-0.9-0.5-1.1-1c-1.1,1.3-0.8,3.3,0.7,3.9c0,0.3,0,0.6,0,0.9c-1.3,1-3.6,0.8-4.7-0.9
		c-0.9-1.3,0.1-2.2,0.6-2.7c1.3-1.2,1.3-2.4,0.4-3.7c-1.2-1.8-4.8-4.7-6.2-6.8c-0.2,0.4-0.4,0.7-0.4,0.9c-1.3-1-2.8-3.1-3.3-4.7
		c-0.3,0-0.5,0.3-0.7,0.5c-2-2.6-5.8-8.8-6.8-11.2c-2.2,1.1-2.2,4.2-1.5,6c0.6,1.7,1.6,3.4,3.7,5.9c-0.7-0.5-4.8-4.8-5.8-5.3
		c-1.5,2.2-0.5,6.1,2.4,7.7c-0.9-0.4-3.1-1.2-4.3-0.9c-0.2,2.5,1.8,4.2,3,5.1c-1.2-0.3-2.6-0.5-3.9-0.1c0.1,1.7,1.8,3.6,4.3,4.4
		c-1.6-0.2-3.2,0-4.1,0.6c0.2,1.8,2.2,3.3,4.5,3.6c-1.6,0.2-3,0.9-3.7,1.8c0.9,1.1,2.1,2,4.1,2c-0.4,0.2-1,0.5-1.4,0.9
		c0,0-0.1-0.1-0.2-0.1c-0.1,0-0.1,0.2-0.1,0.3c0,0,0,0,0,0.1c-0.2,0.1-0.3,0.3-0.3,0.4c-0.2,0.3-0.4,0.6-0.5,0.8l0.1,0.1
		c0,0.2,0,0.3,0.1,0.5c0.2,0,0.2,0.1,0.1,0.3l-1.1-0.4c-0.1,1,0.2,1.9,0.7,2.4c0.4,0.5,0.9,0.4,0.7,0.6l1.2,0.8
		c0.2,0.5,0.7,0.5,1,0.3c0,0,0,0,0,0.1c0,0.5,0.3,0.9,0.8,1.1c-0.1,0.4,0.1,0.7,0.7,0.9l4.7,11.3c-0.2,0.5,0,1,0.4,1.2
		c-0.1,0.1-0.2,0.3-0.2,0.5c0.2-0.1,0.4-0.2,0.6,0.2c0.1,0.3-0.4,1.1,0.3,1.7c-0.1,0.5,0.2,1.1,0.7,1.3c0,0.3,0.2,1.1,0.3,1.5
		c-0.3,0.5-1.1,1.2-1,2c0.1,0.6,0.3,0.7,0.8,0.9c-0.2,1,0.4,1.5,1.2,1.5c0,0.7,0.7,1,1.1,1c0.4,0.3,0.6,0.4,1.1,0.7
		c-0.4,0.5-0.1,1.2,0.7,1.5c0.1,0.3,0.3,0.6,0.8,0.7c0.3,0.4,0.8,0.4,1.1,0.3c0.2-0.1,0.5-0.6,0.2-1.1c0.2-0.2,0.1-0.7,0-0.9
		c0.3-0.5,0-1.1-0.3-1.3c0-0.3-0.1-0.7-0.2-1c0.7-0.4,1.5-0.9,1.8-1.1c1.6-1.1,3.4-2.2,5.4-2.3c0.5,0,1.5-0.1,2,0
		c0.8,0.1,2,0.3,2.6-0.2c0.2-0.1,0.3-0.4,0.3-0.6c-0.1-0.5-0.7-1-0.8-1.4c0-0.1-0.1-0.3-0.2-0.5c0.6,0.1,1.1,0,1.5-0.1
		s1.2-0.8,1.2-1.7c-0.7,0.3-2.4,0.8-2.6-0.9c-0.2-1.5,1.1-2.8,3.2-2.2c1.4,0.4,3.5,3.4,1.6,4.7c-0.9,0.6-2.3,1.2-2.1,2.9
		c0.6-0.7,1.4-1.1,2.5-1c-1.5,1.1-2.7,1.3-4.3,2.2c-1.4,0.8-2.5,2.2-3.6,2.2c-0.9,0-1.3-1-0.5-1.8c-0.8-0.2-1.9,0.5-2.2,1.3
		c-0.4,1.2-0.1,2,0.7,2.5c-1,0.5-1.7,1.6-1.4,3.1c0.3,1.2,1.6,1.2,1.1,2.8c0.7-0.2,1.1-0.7,1.3-1.3c0.1-0.5,0.2-1,0.4-1.2
		c-0.1,0.9,0.4,2.3,1.7,3c0.9,0.4,2.2,0.6,3.3-0.5c0.4,1.2,1.9,2.3,3.4,2.2c0.7,0,1.4-0.3,1.9-0.6c0.4,0.9,1.3,1.8,2.2,2.3
		c0.9-0.4,1.9-1.4,2.2-2.3c0.5,0.3,1.2,0.6,1.9,0.6c1.5,0,3-1,3.4-2.2c1.1,1.1,2.4,0.9,3.3,0.5c1.3-0.6,1.8-2,1.7-3
		c0.2,0.2,0.3,0.7,0.4,1.2c0.2,0.7,0.6,1.1,1.3,1.3c-0.5-1.6,0.8-1.6,1.1-2.8c0.4-1.5-0.4-2.6-1.4-3.1c0.7-0.5,1.1-1.3,0.6-2.5
		c-0.3-0.9-1.4-1.5-2.2-1.3c0.8,0.8,0.4,1.8-0.5,1.8c-1.1,0-2.2-1.4-3.6-2.2c-1.6-0.9-2.8-1-4.3-2.2c1.1-0.1,1.9,0.3,2.5,1
		c0.2-1.6-1.2-2.2-2.2-2.9c-1.9-1.3,0.2-4.3,1.6-4.7c2-0.6,3.4,0.7,3.2,2.2c-0.2,1.7-1.9,1.3-2.6,0.9c0,1,0.9,1.6,1.2,1.7
		c0.4,0.2,1.2,0.3,1.9,0c0,0.2-0.1,0.3-0.1,0.4c-0.1,1.5-0.9,1.6-0.7,2.2c0.4,0.4,2.9,0.4,3.6,0.5c1.2,0.2,2.2,0.6,3.3,0.8
		c1.3,0.3,2.6,0.3,3.8,0.7c0.7,0.3,1.6,0.9,2.3,1.3c1.1,0.2,0.9,0.6,1.6,0.6c0.6,0,0.9-0.5,1.7-0.8c0.6-0.1,1.2,0.1,1.7-0.1
		c0.4-0.1,0.6-0.5,1-0.7c0.4-0.3,1.1-0.3,1.5-0.7c0.2-0.2,0.3-0.6,0.2-0.8v0.1c0.9-0.6,1.5-1.5,1.9-2.5c0.2,0,0.4-0.2,0.4-0.5v-0.1
		c0.2-0.2,0.4-0.5,0.4-0.7c0-0.3-0.1-0.6-0.4-0.8c0,0,0,0,0-0.1c0-0.2-0.1-0.3-0.2-0.4c-0.4-2-1.8-3.5-3.7-4c0,0,0,0,0-0.1l0,0
		c0-0.1,0-0.1-0.1-0.1c-0.3-0.3-0.6-0.7-0.6-1c0.3,0.1,0.8,0.6,1.1,0.8v-2.6c-0.3,0.2-0.8,0.7-1.1,0.8c0-0.3,0.5-0.9,0.8-1.1h-2.6
		c0.2,0.2,0.7,0.8,0.8,1.1c-0.3-0.1-0.8-0.6-1.1-0.8v2.6c0.3-0.2,0.8-0.7,1.1-0.8c0,0.3-0.5,0.9-0.8,1.1H75c-2,0.4-3.5,2.1-3.9,4.1
		c-0.1,0.1-0.2,0.2-0.2,0.4v0.1c-0.2,0.2-0.4,0.5-0.4,0.8s0.1,0.5,0.4,0.7c0,0,0,0,0,0.1c0,0.3,0.2,0.4,0.4,0.5
		c0.1,0.2,0.2,0.5,0.3,0.7l0,0c-0.2,0.7-1.1,1.2-1.3,1.2c-1.6,0.2-3.4-0.4-5-1.1c-0.7-0.3-1.7-0.6-2.2-1.3c-0.3-0.5-0.4-0.8-0.3-1.3
		c0.2,0.2,0.5,0.5,0.9,0.7c0-0.2,0-0.5,0.1-0.6c0.4,0.6,1.1,0.9,1.8,0.9c-0.5-0.4-0.7-1.5-0.5-2.4c0.7,1.1,3.1,1.3,3.6-0.7
		c-0.9,0.4-1.5,0-1.7-0.5c-0.3-0.8,0.6-2.7-0.2-4.2c-0.7-1.1-1.4-1.8-3.1-2c0.1-0.2,0.2-0.4,0.2-0.7c-1.6,0.6-3,0.1-3.6-1.1
		c0.3,0.1,0.8,0.2,1.2,0.2c-1.4-1.1-1.3-4.4-0.3-6.1c0.1-0.1,0.2-0.2,0.3-0.2c0.3,0.6,1.2,0.6,1.7,1.1c0.2-0.2,0.3-0.2,0.5-0.4
		c0,0,0,2.7,0.2,3.8c0.2,1.2,1.4,1.1,2,1.6c0.7-0.8,2-0.7,1.8-2.1c-0.2-1.4-0.4-2.6-0.5-3.5c0.4,0.8,1.2,3.9,1.5,4.8
		c0.5,1.3,1.8,0.9,2.5,1.4c0.5-0.9,1.7-1.2,1.2-2.6c-0.1-0.4-2.1-4.5-2.4-5.3c0.7,1,2.6,4.6,3.2,5.6c0.7,1.1,1.8,0.5,2.7,0.8
		c0.2-0.8,1.3-1.6,0.5-3c-1.1-1.8-3.5-4.8-3.7-5.2c0.5,0.5,4.3,5.2,4.6,5.5c0.9,0.8,2.2,0.2,3,0.2c0-0.9,0.7-1.9-0.3-2.9
		c-0.9-0.9-3-2.4-3.5-2.9c1.4,1,3.1,2.5,4.1,2.8c1.8,0.4,2.4-0.2,3-0.5c-0.5-1.6,0.2-2.3-3.5-3.9c3.2,1.1,4.6,0.6,5.8-0.3
		c-0.4-1.1-1.6-2.1-2.5-2.4c2,0,3.3-0.8,4.1-2c-0.7-1-2.2-1.7-3.8-1.8C86.1,42.7,88,41.2,88.2,39.5z M14,51.2
		C14,51.2,14,51.3,14,51.2c-0.4,0-0.4-0.3-0.3-0.5c0.1,0,0.2,0,0.3-0.1l0,0l-0.1,0.1C14,50.9,14,51,14,51.2z M14.9,53.1l-0.4-0.3
		c0.2-0.2,0.4-0.2,0.5-0.1C15,52.9,15,53,14.9,53.1z M16.2,50.3c-0.1,0-0.1,0-0.2,0l0,0C16.1,50.2,16.2,50.2,16.2,50.3
		C16.2,50.2,16.2,50.3,16.2,50.3z M41.6,83.1c-1.1,0-1.9-0.7-1.3-1.7c0.3,0.4,0.9,0.6,1.4,0.7C41.6,82.5,41.6,82.7,41.6,83.1z
		 M58.4,81.4c0.6,1-0.2,1.7-1.3,1.7c0-0.4,0-0.5-0.1-1C57.5,82,58.1,81.9,58.4,81.4z M41.6,22c2.5-0.5,5.1-2,6.2-3.1
		c1,0.1,2.2,0.1,3.1,0c1.1,1.2,3.7,2.6,6.2,3.1c-1.5,0-4-0.1-4.3-0.5c0.1,0.9,2,2,3.3,2.2c-1.1,0.1-2,0-2.9-0.4
		c0.5,0.7,1,1.1,1.8,1.4c-0.9,1.1-2.7,1.8-4.6,1.6c0.4,0.5,1.3,0.9,2,0.8c-1.6,2.6-2.9,5.3-3.1,8.4l0,0l0,0
		c-0.3-3.1-1.5-5.8-3.1-8.4c0.7,0.1,1.5-0.2,2-0.8c-1.8,0.2-3.6-0.5-4.5-1.6c0.9-0.3,1.4-0.8,1.8-1.4c-0.8,0.4-1.8,0.5-2.9,0.4
		c1.3-0.3,3.3-1.3,3.3-2.2C45.6,21.9,43.1,22,41.6,22z M18.6,49.6c-0.2,0.1-0.5,0.2-0.7,0.3c0,0,0,0,0-0.1
		C18.1,49.8,18.4,49.7,18.6,49.6z M34.7,61.4c0,0.3,0.1,0.5,0.2,0.7c-1.7,0.3-2.5,0.9-3.1,2c-0.9,1.5,0,3.4-0.2,4.2
		c-0.2,0.5-0.8,1-1.7,0.5c0.4,2,2.9,1.8,3.6,0.7c0.2,0.9,0,2-0.4,2.4c0.8,0,1.4-0.3,1.8-0.9c0.1,0.2,0.1,0.4,0.1,0.6
		c0.4-0.2,0.7-0.5,0.9-0.7c0.1,0.2,0.2,0.7,0,1.2c-0.3,0.2-0.7,0.4-1.3,0.7C33.7,73.2,32,73.9,31,74c-0.8,0.1-2.2-0.3-2.5-1.4
		s-1.2-1.4-1.9-0.7c-0.2-0.1-0.7-0.2-0.9,0.1c0,0-0.2-0.5-0.5-0.7c0.2-0.5,0-1.2-0.4-1.4c0-1.1-0.7-1.1-0.9-1.4
		c-0.1-0.2-0.1-0.5,0.2-0.5c-0.1-0.2-0.4-0.2-0.4-0.2c0.1-0.4,0-1-0.7-1.2l-5.3-11c0.3-0.4,0.2-0.9-0.2-1.1c0,0,0,0,0-0.1
		s0-0.2,0-0.2c0.1,0,0.3-0.1,0.5-0.1c1.1-0.2,2.7-1.8,4.1-2.8c-0.5,0.5-2.6,2-3.5,2.9s-0.5,1.7-0.4,2.5l0.2,0.4
		c0.8,0,1.9,0.5,2.8-0.2c0.3-0.3,4.1-5,4.6-5.5c-0.2,0.4-2.6,3.5-3.7,5.2c-0.8,1.3,0.4,2.2,0.5,3c0.9-0.3,2.1,0.2,2.7-0.8
		s2.5-4.6,3.2-5.6c-0.3,0.8-2.2,4.9-2.4,5.3c-0.5,1.4,0.7,1.7,1.2,2.6c0.7-0.5,2-0.1,2.5-1.4c0.3-0.9,1.1-4,1.5-4.8
		c0,0.9-0.3,2.2-0.5,3.5c-0.2,1.4,1.1,1.3,1.8,2.1c0.7-0.5,1.8-0.4,2-1.6c0.2-1.1,0.2-3.8,0.2-3.8c0.2,0.2,0.3,0.2,0.5,0.4
		c0.4-0.5,1.4-0.5,1.7-1.1c0.1,0,0.2,0.1,0.3,0.2c1,1.7,1.1,4.9-0.3,6.1c0.4,0,0.9,0,1.2-0.2C37.7,61.5,36.3,62,34.7,61.4z
		 M44.7,76.7c-0.8,1.1-1.5,2-2,3.4c-1-0.1-0.8-1.3-0.5-1.9c0.7-1.2,3.3-2.7,4.6-4.3C46.2,74.9,45.4,75.8,44.7,76.7z M47.5,78.8
		C47,81,46.6,84,46.8,85.4c-1.9-1-0.8-4.7-0.1-6.3c1-2.2,1.7-5,1.9-6.7C49.2,73.7,47.9,77.4,47.5,78.8z M51.9,85.4
		c0.2-1.4-0.2-4.5-0.7-6.6c-0.4-1.4-1.7-5.1-1.1-6.5c0.2,1.8,0.9,4.5,1.9,6.7C52.7,80.7,53.7,84.5,51.9,85.4z M56.5,78.2
		c0.3,0.6,0.5,1.8-0.5,1.9c-0.5-1.4-1.2-2.2-2-3.4c-0.7-0.9-1.6-1.8-2.2-2.8C53.2,75.5,55.9,77,56.5,78.2z M56.3,62.2
		c-2.4,4.7-6.9,8.6-6.9,8.5c-0.1,0.1-4.5-3.8-6.9-8.5s-4-12.1-4.1-15.7C38.3,43,39,41.4,39,41.4s3-0.2,5.5-1c2.1-0.7,4.3-2.5,4.9-3
		c0.6,0.5,2.9,2.3,4.9,3c2.4,0.8,5.5,1,5.5,1s0.7,1.5,0.6,5.1C60.3,50.1,58.7,57.5,56.3,62.2z"/>
</g>
</svg>
